<?xml version="1.0" encoding="UTF-8"?>
<svg id="Layer_1" data-name="Layer 1" xmlns="http://www.w3.org/2000/svg" viewBox="0 0 496.1739 500.903">
  <defs>
    <style>
      .cls-1 {
        fill: #f6c707;
      }

      .cls-2 {
        fill: #fff;
      }

      .cls-3 {
        fill: none;
      }

      .cls-4 {
        fill: #293484;
      }

      .cls-5 {
        fill: #191919;
      }
    </style>
  </defs>
  <g id="BOSNIA">
    <path class="cls-4" d="M496.1739,64.6666v371.4514c0,9.3392-2.0088,18.2058-5.556,26.1264-.5917,1.3003-1.1834,2.6012-1.8934,3.9015-.4705.946-.9438,1.8912-1.5355,2.8372-1.065,1.8919-2.2455,3.7832-3.5472,5.4384-2.1272,2.9555-4.491,5.556-6.9761,8.039-.9438.946-2.0088,1.8912-3.071,2.8372-2.1301,1.7736-4.3756,3.5465-6.7394,5.0834-1.1834.7093-2.4822,1.4186-3.6655,2.1279-.5917.4733-1.3017.8276-2.0088,1.0643-1.1834.7093-2.4822,1.3003-3.7839,1.7729-4.9644,2.3646-10.1654,3.9015-15.7243,4.7291H54.6167c-2.1272-.355-4.136-.7093-6.1448-1.4186-1.42-.355-2.7217-.8276-4.1389-1.1819-1.8934-.5917-3.7839-1.301-5.556-2.1286-.71-.236-1.42-.591-2.0117-.9452-2.4822-1.1826-4.846-2.4829-7.0915-3.9015-2.2484-1.4186-4.3756-3.0739-6.5027-4.7291h-.1183c-4.0206-3.5465-7.6832-7.448-10.8754-11.8221-1.065-1.5369-2.1272-3.0731-3.0739-4.7284-.71-1.1826-1.42-2.3646-2.0088-3.6648-.71-1.301-1.42-2.7196-2.0117-4.2565-3.3105-7.6839-5.0827-16.1962-5.0827-25.1804V64.6666c0-1.5369,0-2.9555.1183-4.3741v-.1183c.4733-7.448,2.2455-14.3043,5.0827-20.6887.1183-.4726.355-1.0636.71-1.5369.4733-1.3003,1.1834-2.6005,1.8905-3.7824.4733-1.1826,1.1834-2.2462,1.8905-3.4289.9467-1.4186,1.8934-2.9555,2.9555-4.3741,1.065-1.5369,2.2484-2.9555,3.5472-4.3741,1.3017-1.4186,2.6005-2.8372,3.9022-4.1375.1183,0,.1183-.1183.1183-.1183,4.0206-3.9015,8.6299-7.2113,13.7126-9.8126,2.4851-1.4186,5.2039-2.6005,7.9228-3.5465,4.2543-1.6553,8.8666-2.9555,13.5943-3.5465h385.4021c3.3077.4726,6.6211,1.1819,9.6921,2.3638,1.6567.355,3.1922.946,4.7306,1.5369,2.4822.8276,4.846,1.8919,7.0915,3.1922.1183.1183.355.1183.4733.2367,3.1922,1.6553,6.2661,3.6648,8.9849,6.0294.8284.7093,1.5384,1.3003,2.3638,2.0096.9467.7093,1.8934,1.5369,2.7189,2.3646,3.1922,3.3098,6.0323,6.7387,8.6299,10.6395.8284,1.301,1.6567,2.6012,2.3667,3.9015.1183.1183.2367.355.2367.4726,1.1805,2.1279,2.2455,4.3741,3.1922,6.7387.1155.1183.2367.2367.2367.4733,3.071,7.3297,4.6094,15.4869,4.6094,23.8802Z"/>
    <path class="cls-1" d="M439.9005.8276v499.1294h-.1183l-4.846-4.8468L5.6744,65.7309l-4.9644-4.9651-.5917-.4733v-.1183c.4733-7.448,2.2455-14.3043,5.0827-20.6887.1183-.4726.355-1.0636.71-1.5369.4733-1.3003,1.1834-2.6005,1.8905-3.7824.4733-1.1826,1.1834-2.2462,1.8905-3.4289.9467-1.4186,1.8934-2.9555,2.9555-4.3741,1.065-1.5369,2.2484-2.9555,3.5472-4.3741,1.3017-1.4186,2.6005-2.8372,3.9022-4.1375.1183,0,.1183-.1183.1183-.1183,4.0206-3.9015,8.6299-7.2113,13.7126-9.8126,2.4851-1.4186,5.2039-2.6005,7.9228-3.5465,4.2543-1.6553,8.8666-2.9555,13.5943-3.5465h384.4554Z"/>
    <g>
      <polygon class="cls-2" points="339.479 479.6305 304.9512 479.6305 332.7809 500.0448 350.0504 500.0448 367.4301 500.0448 395.1826 479.6305 360.6879 479.6305 350.0504 446.8683 339.479 479.6305"/>
      <polygon class="cls-2" points=".5917 149.0767 3.6655 158.5343 .5917 156.288 0 155.8154 0 147.1855 .5917 149.0767"/>
      <polygon class="cls-2" points="20.9254 105.4531 5.6744 116.4476 .5917 120.2307 0 120.5857 0 105.4531 20.9254 105.4531"/>
      <polygon class="cls-2" points="55.3267 188.0895 65.9683 220.837 38.1852 200.5026 10.2837 220.837 20.9254 188.0895 5.6744 177.0951 .5917 173.3119 0 172.9576 0 167.8742 27.5465 167.8742 38.1852 135.0084 48.824 167.8742 83.2282 167.8742 55.3267 188.0895"/>
      <polygon class="cls-2" points="100.5763 262.9628 128.428 283.1675 117.7685 250.4163 145.6313 230.2006 111.1697 230.2006 100.5763 197.4384 89.8726 230.2006 55.4662 230.2006 83.3179 250.4163 72.6914 283.1675 100.5763 262.9628"/>
      <polygon class="cls-2" points="162.9007 325.2872 190.7855 345.6022 180.159 312.84 208.0108 292.536 173.5603 292.536 162.9007 259.8731 152.2963 292.536 117.8236 292.536 145.6754 312.84 135.0489 345.6022 162.9007 325.2872"/>
      <polygon class="cls-2" points="225.3133 387.6226 253.1209 407.9376 242.5386 375.1754 270.4235 354.9707 235.9729 354.9707 225.3133 322.2085 214.6317 354.9707 180.2253 354.9707 208.1101 375.1754 197.4616 407.9376 225.3133 387.6226"/>
      <polygon class="cls-2" points="287.6929 450.1566 315.5557 470.273 304.8961 437.5108 332.7809 417.2951 298.3194 417.2951 287.6929 384.6322 277.0443 417.2951 242.5938 417.2951 270.4897 437.5108 259.8411 470.273 287.6929 450.1566"/>
    </g>
  </g>
  <path class="cls-3" d="M495.5822,63.0121v374.8788c0,8.6299-1.7722,16.7872-4.9644,24.3535-.5917,1.3003-1.1834,2.6012-1.8934,3.9015-.4705.946-.9438,1.8912-1.5355,2.8372-1.065,1.8919-2.2455,3.7832-3.5472,5.4384-2.1272,2.9555-4.491,5.556-6.9761,8.039-.9438.946-2.0088,1.8912-3.071,2.8372-2.1301,1.7736-4.3756,3.5465-6.7394,5.0834-1.1834.7093-2.4822,1.4186-3.6655,2.1279-.5917.4733-1.3017.8276-2.0088,1.0643-1.1834.7093-2.4822,1.3003-3.7839,1.7729-5.556,2.3646-11.3488,3.9015-17.4965,4.6108h-.1183c-.8284.1183-1.5384.1183-2.3638.1183-1.42.2367-2.8372.2367-4.2572.2367H63.0128c-1.42,0-2.8401,0-4.2572-.2367-3.4289-.2367-6.9761-.7093-10.2837-1.4186-1.42-.355-2.7217-.8276-4.1389-1.1819-1.8934-.5917-3.7839-1.301-5.556-2.1286-.71-.236-1.42-.591-2.0117-.9452-2.4822-1.1826-4.846-2.4829-7.0915-3.9015-2.2484-1.4186-4.3756-3.0739-6.5027-4.7291h-.1183c-4.0206-3.5465-7.6832-7.448-10.8754-11.8221-1.065-1.5369-2.1272-3.0731-3.0739-4.7284-.71-1.1826-1.42-2.3646-2.0088-3.6648-.71-1.301-1.42-2.7196-2.0117-4.2565-2.8372-7.2113-4.491-15.1319-4.491-23.4076V63.0121c0-.71,0-1.5369.1183-2.2462.2367-7.448,1.7722-14.66,4.491-21.2804.1183-.4726.355-1.0636.71-1.5369.4733-1.3003,1.1834-2.6005,1.8905-3.7824.4733-1.1826,1.1834-2.2462,1.8905-3.4289.9467-1.4186,1.8934-2.9555,2.9555-4.3741,1.065-1.5369,2.2484-2.9555,3.5472-4.3741,1.3017-1.4186,2.6005-2.8372,3.9022-4.1375.1183,0,.1183-.1183.1183-.1183,4.0206-3.9015,8.6299-7.2113,13.7126-9.8126,2.4851-1.4186,5.2039-2.6005,7.9228-3.5465,5.3194-2.0096,10.9938-3.1922,16.9048-3.5465,1.4172-.2367,2.8372-.2367,4.2572-.2367h370.1483c1.42,0,2.8372,0,4.2572.2367.8255,0,1.6538,0,2.4822.1183,3.6655.3543,7.2099,1.1819,10.6387,2.2455,1.6567.355,3.1922.946,4.7306,1.5369,2.4822.8276,4.846,1.8919,7.0915,3.1922.1183.1183.355.1183.4733.2367,3.1922,1.6553,6.2661,3.6648,8.9849,6.0294.8284.7093,1.5384,1.3003,2.3638,2.0096.9467.7093,1.8934,1.5369,2.7189,2.3646,3.1922,3.3098,6.0323,6.7387,8.6299,10.6395.8284,1.301,1.6567,2.6012,2.3667,3.9015.1183.1183.2367.355.2367.4726,1.1805,2.1279,2.2455,4.3741,3.1922,6.7387.1155.1183.2367.2367.2367.4733,2.6005,6.9746,4.0177,14.4226,4.0177,22.2256Z"/>
  <path class="cls-5" d="M491.5645,40.7864c0-.2367-.1212-.355-.2367-.4733-.9467-2.3646-2.0117-4.6108-3.1922-6.7387,0-.1176-.1183-.3543-.2367-.4726-.71-1.3003-1.5384-2.6005-2.3667-3.9015-2.5976-3.9008-5.4377-7.3297-8.6299-10.6395-.8255-.8276-1.7722-1.6553-2.7189-2.3646-.8255-.7093-1.5355-1.3003-2.3638-2.0096-2.8372-2.2462-5.7927-4.2565-8.9849-6.0294-.1183-.1183-.355-.1183-.4733-.2367-2.2455-1.3003-4.6094-2.3646-7.0915-3.1922-1.5384-.591-3.0739-1.1819-4.7306-1.5369-3.071-1.1819-6.3844-1.8912-9.6921-2.3638-.2367-.1183-.355-.1183-.5917-.1183-2.8372-.4733-5.6744-.7093-8.7483-.7093H64.785c-3.0739,0-5.9111.236-8.7483.7093-.2367,0-.355,0-.5917.1183-4.7277.591-9.3399,1.8912-13.5943,3.5465-2.7189.946-5.4377,2.1279-7.9228,3.5465-4.9644,2.7189-9.5737,6.0294-13.7126,9.8126,0,0,0,.1183-.1183.1183-1.3017,1.3003-2.6005,2.7189-3.9022,4.1375-1.2988,1.4186-2.4822,2.8372-3.5472,4.3741-1.0621,1.4186-2.0088,2.9555-2.9555,4.3741-.7071,1.1826-1.4172,2.2462-1.8905,3.4289-.7071,1.1819-1.4172,2.4822-1.8905,3.7824-.355.4733-.5917,1.0643-.71,1.5369C2.3638,45.8699.5917,52.7262.1183,60.1742v.1183c-.1183,1.4186-.1183,2.8372-.1183,4.3741v371.4514c0,8.9842,1.7722,17.4965,5.0827,25.1804.5917,1.5369,1.3017,2.9555,2.0117,4.2565.5888,1.3003,1.2988,2.4822,2.0088,3.6648.9467,1.6553,2.0088,3.1915,3.0739,4.7284,3.1922,4.3741,6.8549,8.2756,10.8754,11.8221h.1183c2.1272,1.6553,4.2543,3.3105,6.5027,4.7291,2.2455,1.4186,4.6094,2.7189,7.0915,3.9015.5917.3543,1.3017.7093,2.0117.9452,1.7722.8276,3.6627,1.5369,5.556,2.1286,1.4172.3543,2.7189.8269,4.1389,1.1819,2.0088.7093,4.0177,1.0636,6.1448,1.4186,3.3105.591,6.7394.8276,10.1683.8276h366.7223c3.4289,0,6.9732-.2367,10.1654-.8276,5.5589-.8276,10.76-2.3646,15.7243-4.7291,1.3017-.4726,2.6005-1.0636,3.7839-1.7729.7071-.2367,1.4172-.591,2.0088-1.0643,1.1834-.7093,2.4822-1.4186,3.6655-2.1279,2.3638-1.5369,4.6094-3.3098,6.7394-5.0834,1.0621-.946,2.1272-1.8912,3.071-2.8372,2.4851-2.4829,4.8489-5.0834,6.9761-8.039,1.3017-1.6553,2.4822-3.5465,3.5472-5.4384.5917-.946,1.065-1.8912,1.5355-2.8372.71-1.3003,1.3017-2.6012,1.8934-3.9015,3.5472-7.9206,5.556-16.7872,5.556-26.1264V64.6666c0-8.3932-1.5384-16.5505-4.6094-23.8802ZM439.9005,494.6369c-1.6567.355-3.3105.4733-4.9644.4733-1.065.236-2.2455.236-3.4289.236H64.785c-32.6292,0-59.1106-26.4814-59.1106-59.2282V64.6666C5.6744,32.0375,32.1558,5.556,64.785,5.556h366.7223c2.8372,0,5.6744.2367,8.3932.7093,28.6086,4.0198,50.7173,28.61,50.7173,58.4013v371.4514c0,29.9096-22.1087,54.4998-50.7173,58.5189Z"/>
</svg>