<?xml version="1.0" encoding="UTF-8"?>
<svg id="Layer_1" data-name="Layer 1" xmlns="http://www.w3.org/2000/svg" viewBox="0 0 500 500">
  <path d="M441.0327,16c11.4118,0,22.184,4.4873,30.332,12.6353,8.148,8.1481,12.6353,18.9201,12.6353,30.3319v382.0655c0,11.4119-4.4873,22.184-12.6353,30.332-8.148,8.148-18.9201,12.6353-30.332,12.6353H58.9672c-11.4118,0-22.1838-4.4873-30.3319-12.6353-8.148-8.148-12.6353-18.9202-12.6353-30.332V58.9672c0-11.4118,4.4873-22.1838,12.6353-30.3319,8.1481-8.148,18.9201-12.6353,30.3319-12.6353h382.0655M441.0327,0H58.9672C26.5353,0,0,26.5353,0,58.9672v382.0655c0,32.4321,26.5353,58.9673,58.9672,58.9673h382.0655c32.4321,0,58.9673-26.5352,58.9673-58.9673V58.9672c0-32.4319-26.5352-58.9672-58.9673-58.9672h0Z"/>
  <g>
    <rect x="142.9908" y="88.4954" width="21.1376" height="323.0092" rx="8.9174" ry="8.9174"/>
    <path d="M162.1865,104.8317h170.6055c12.3953,0,22.4587,10.0634,22.4587,22.4587v83.8899c0,12.3953-10.0634,22.4587-22.4587,22.4587h-170.6055c-1.357,0-2.4587-1.1017-2.4587-2.4587v-123.8899c0-1.357,1.1017-2.4587,2.4587-2.4587Z"/>
  </g>
</svg>