<?xml version="1.0" encoding="UTF-8"?>
<svg id="Layer_1" data-name="Layer 1" xmlns="http://www.w3.org/2000/svg" viewBox="0 0 497.5296 450.2183">
  <path d="M355.4949,200.4144c-19.221-12.0897-35.8287-17.5154-65.341-27.1571-1.2265-.4007-2.4766-.809-3.7487-1.2257,16.3833-5.7057,30.1095-10.6557,42.0861-15.4293l7.16-2.8537-.081-.0405c1.8237-.7617,3.5918-1.5158,5.3228-2.2717l.3324-.1442c1.0949-.48,2.1291-.9406,3.1515-1.4011l1.1894-.5382c.8402-.383,1.6196-.7415,2.3872-1.1.6428-.2986,3.6137-1.7158,3.6137-1.7158.8317-.4015,1.6533-.8081,2.4716-1.2155l1.1573-.5745c1.213-.6107,2.4109-1.224,3.5969-1.8465,25.5206-13.3778,85.2857-44.7079,121.6914-106.6957,6.8918-11.7354,12.4996-23.6977,16.9519-36.2049.5837,21.8638-1.3581,52.3445-12.1319,83.6425-6.4312,18.6761-15.366,35.5309-26.5565,50.0947-.7963,1.0367-1.6078,2.0507-2.4243,3.0528-.2615.3231-1.0342,1.2476-1.0342,1.2476-.437.5213-.8807,1.046-1.3294,1.5665-.4791.5559-.96,1.1109-1.4475,1.6584l-.3425.3762c-4.0895,4.5535-8.4422,8.74-13.2976,12.7932l-1.267,1.0468c-.496.4057-.992.8106-1.4981,1.213-18.5344,14.7578-42.7188,26.8273-80.6125,43.7226Z"/>
  <path d="M373.8487,378.7153c.5719-18.5858.8823-43.4037-12.0475-67.977-18.7807-35.698-51.9472-46.988-102.1516-64.0757-24.6771-8.4-55.3905-18.8524-91.3373-34.6503-69.7476-30.6502-104.7564-46.0348-129.528-78.275C4.1214,88.6228-.8083,33.563.096.0008c4.4539,12.5064,10.0601,24.4679,16.9519,36.2041,36.4057,61.9879,96.1708,93.318,121.6914,106.6966,24.3295,12.7536,52.9544,22.5479,109.983,42.0617,13.2032,4.5172,24.2114,8.1124,33.9223,11.2849,32.3533,10.5688,47.1153,15.3913,67.0517,29.325,9.7952,6.8471,35.8085,25.0297,53.9447,57.5669,20.6314,37.0122,20.5707,72.9033,19.965,95.5753h-49.7573Z"/>
  <path d="M347.5521,450.0994c-183.9501-16.2425-243.2631-58.7116-260.6249-91.4824-9.3937-17.7288-9.387-38.2969.0236-61.1325l1.3345-3.2401c.7862-1.7175,1.6247-3.4661,2.5104-5.2291l.496-.9819c.8115-1.5867,1.6466-3.1785,2.534-4.7745l.1788-.2691.0456-.1324c.8823-1.5707,1.8035-3.1236,2.7432-4.669.2986-.4909,1.0797-1.736,1.0797-1.736.6208-.9886,1.2552-1.9747,1.903-2.9532.4623-.7044.9195-1.4003,1.3851-2.0802.4015-.5871.8132-1.1666,1.2231-1.7461l.2531-.356c15.6022-22.0663,34.0185-35.8161,41.8314-41.3725,4.5501,2.0068,9.2419,4.0693,14.1125,6.2102,17.2151,7.5649,34.4149,14.4727,53.4942,21.475-14.8194,5.3759-27.2853,10.5485-38.2632,16.8228-.9212.5247-1.8237,1.057-2.7128,1.5918l-.6411.388c-.7558.4623-1.4914.9271-2.2219,1.3935l-.9228.5913c-.4032.2623-.8064.5357-1.208.8081l-.3222.2176c-13.2099,8.9576-22.7133,19.4538-29.9104,33.0341l-.1316.2421c-5.618,10.6742-6.3924,20.6061-2.3822,30.3811,8.7307,21.2641,41.7555,49.2816,217.9568,109.1184l-3.7639-.1189Z"/>
</svg>