<?xml version="1.0" encoding="UTF-8"?>
<svg id="Layer_1" xmlns="http://www.w3.org/2000/svg" version="1.1" xmlns:xlink="http://www.w3.org/1999/xlink" viewBox="0 0 749 457.3">
  <!-- Generator: Adobe Illustrator 29.3.0, SVG Export Plug-In . SVG Version: 2.1.0 Build 146)  -->
  <defs>
    <style>
      .st0 {
        fill: #fff;
      }

      .st1 {
        fill: #f2f2f2;
      }

      .st2 {
        fill: #ccc;
      }

      .st3 {
        fill: #e6e6e6;
      }
    </style>
  </defs>
  <g id="Group_201">
    <g id="Group_200">
      <path id="Path_3120-1131" class="st1" d="M384.2,369.8l-261.8,67.4c-18.5,4.7-37.3-6.4-42.1-24.9L1.1,104.8c-4.7-18.5,6.4-37.3,24.9-42.1L269.6,0l62.3,27.9,77.2,299.8c4.7,18.5-6.4,37.3-24.9,42.1Z"/>
      <path id="Path_3121-1132" class="st0" d="M28.4,72.4c-13.2,3.4-21.1,16.8-17.7,30l79.2,307.5c3.4,13.2,16.8,21.1,30,17.7l261.8-67.4c13.2-3.4,21.1-16.8,17.7-30L323.5,35l-54.8-24.5L28.4,72.4Z"/>
      <path id="Path_3122-1133" class="st1" d="M331.2,29.5l-40.5,10.4c-6.2,1.6-12.4-2.1-14-8.3l-7.7-29.9c0-.4.1-.8.5-.9.2,0,.3,0,.5,0l61.4,27.3c.4.2.5.6.4,1,0,.2-.3.3-.5.4h0Z"/>
      <path id="Path_3123-1134" class="st2" d="M309.9,292.1l-119.2,30.7c-3.1.8-6.2-1.1-7-4.2-.8-3.1,1.1-6.2,4.1-7l119.2-30.7c3.1-.8,6.2,1,7,4.1.8,3.1-1,6.2-4.1,7,0,0,0,0,0,0Z"/>
      <path id="Path_3124-1135" class="st2" d="M337.8,305l-142.2,36.6c-3.1.8-6.2-1-7-4.1-.8-3.1,1-6.2,4.1-7,0,0,0,0,0,0l142.2-36.6c3.1-.8,6.2,1.1,7,4.2.8,3.1-1.1,6.2-4.1,7h0Z"/>
      <circle id="Ellipse_44" cx="142.1" cy="339.4" r="20.4"/>
      <path id="Path_3125-1136" class="st0" d="M297.2,238.8l-158.3,40.8c-9.5,2.4-19.2-3.3-21.7-12.8l-33.2-128.9c-2.4-9.5,3.3-19.2,12.8-21.7l158.3-40.8c9.5-2.4,19.2,3.3,21.7,12.8l33.2,128.9c2.4,9.5-3.3,19.2-12.8,21.7Z"/>
      <path id="Path_3126-1137" class="st3" d="M297.2,238.8l-158.3,40.8c-9.5,2.4-19.2-3.3-21.7-12.8l-33.2-128.9c-2.4-9.5,3.3-19.2,12.8-21.7l158.3-40.8c9.5-2.4,19.2,3.3,21.7,12.8l33.2,128.9c2.4,9.5-3.3,19.2-12.8,21.7ZM97.4,118.2c-8.4,2.2-13.5,10.7-11.3,19.1l33.2,128.9c2.2,8.4,10.7,13.5,19.1,11.3l158.3-40.8c8.4-2.2,13.5-10.7,11.3-19.1l-33.2-128.9c-2.2-8.4-10.7-13.5-19.1-11.3l-158.3,40.8Z"/>
      <path id="Path_411-1138" class="st1" d="M247.1,118.8l-79.9,20.6c-1.4.4-3-.4-3.5-1.8-.5-1.5.3-3,1.8-3.5,0,0,0,0,.1,0l81.3-20.9c3.3,1.7,2.4,5.1,0,5.7h0Z"/>
      <path id="Path_412-1139" class="st1" d="M250.8,132.8l-79.9,20.6c-1.4.4-3-.4-3.5-1.8-.5-1.5.3-3,1.8-3.5,0,0,0,0,.1,0l81.3-20.9c3.3,1.7,2.4,5.1,0,5.7h0Z"/>
      <path id="Path_413-1140" d="M155.6,165.8l-24.4,6.3c-1.7.4-3.3-.6-3.8-2.2h0s-7.4-28.8-7.4-28.8c-.4-1.7.6-3.3,2.2-3.8h0s24.4-6.3,24.4-6.3c1.7-.4,3.3.6,3.8,2.2l7.4,28.8c.4,1.7-.6,3.3-2.2,3.8h0s0,0,0,0Z"/>
      <path id="Path_414-1141" class="st1" d="M257.9,161.5l-121.9,31.4c-1.4.4-3-.4-3.5-1.8-.5-1.5.3-3,1.8-3.5,0,0,0,0,.1,0l123.4-31.8c3.3,1.7,2.4,5.1,0,5.7h0Z"/>
      <path id="Path_415-1142" class="st1" d="M261.5,175.6l-121.9,31.4c-1.4.4-3-.4-3.5-1.8-.5-1.5.3-3,1.8-3.5,0,0,0,0,.1,0l123.4-31.8c3.3,1.7,2.4,5.1,0,5.7h0Z"/>
      <path id="Path_416-1143" class="st1" d="M265.1,189.6l-121.9,31.4c-1.4.4-3-.4-3.5-1.8-.5-1.5.3-3,1.8-3.5,0,0,0,0,.1,0l123.4-31.8c3.3,1.7,2.4,5.1,0,5.7h0Z"/>
      <path id="Path_417-1144" class="st1" d="M268.7,203.6l-121.9,31.4c-1.4.4-3-.4-3.5-1.8-.5-1.5.3-3,1.8-3.5,0,0,0,0,.1,0l123.4-31.8c3.3,1.7,2.4,5.1,0,5.7Z"/>
      <path id="Path_418-1145" class="st1" d="M272.3,217.6l-121.9,31.4c-1.4.4-3-.4-3.5-1.8-.5-1.5.3-3,1.8-3.5,0,0,0,0,.1,0l123.4-31.8c3.3,1.7,2.4,5.1,0,5.7Z"/>
      <path id="Path_395-1146" class="st0" d="M143.6,346.5c-.4.1-.9,0-1.3,0h0s-5.5-2.4-5.5-2.4c-1.1-.5-1.6-1.7-1.1-2.8.5-1.1,1.7-1.6,2.8-1.1h0l3.6,1.5,4.7-11.1c.5-1.1,1.7-1.6,2.8-1.1h0c0,0,0,0,0,0,1.1.5,1.6,1.7,1.1,2.8l-5.5,13c-.3.6-.8,1.1-1.4,1.2h0Z"/>
    </g>
    <g id="Group_199">
      <g id="Group_198">
        <path id="Path_3127-1147" class="st3" d="M641.2,450.7l-265.4-51.6c-18.7-3.7-31-21.8-27.3-40.5l60.6-311.7c3.7-18.7,21.8-31,40.5-27.3l246.9,48,44.3,52-59.1,303.8c-3.7,18.7-21.8,31-40.5,27.4Z"/>
        <path id="Path_3128-1148" class="st0" d="M447.7,29.3c-13.3-2.6-26.3,6.1-28.9,19.5l-60.6,311.7c-2.6,13.3,6.1,26.3,19.5,28.9l265.4,51.6c13.3,2.6,26.3-6.1,28.9-19.5l58.1-299.1-38.9-45.7-243.5-47.3Z"/>
        <path id="Path_3129-1149" d="M643.9,161.5l-120.8-23.5c-3.1-.6-5.2-3.6-4.6-6.8.6-3.1,3.6-5.2,6.8-4.6l120.8,23.5c3.1.6,5.2,3.6,4.6,6.8-.6,3.1-3.6,5.2-6.8,4.6h0Z"/>
        <path id="Path_3130-1150" d="M663.5,185.1l-144.2-28c-3.1-.6-5.2-3.6-4.6-6.8.6-3.1,3.6-5.2,6.8-4.6l144.2,28c3.1.6,5.2,3.6,4.6,6.8-.6,3.1-3.6,5.2-6.8,4.6h0Z"/>
        <path id="Path_3131-1151" class="st2" d="M629.5,235.6l-120.8-23.5c-3.1-.6-6.1,1.4-6.8,4.6s1.4,6.1,4.6,6.8l120.8,23.5c3.1.6,6.1-1.5,6.7-4.6.6-3.1-1.4-6-4.5-6.7Z"/>
        <path id="Path_3132-1152" class="st2" d="M649.1,259.3l-144.2-28c-3.1-.6-6.2,1.4-6.8,4.5-.6,3.1,1.4,6.2,4.5,6.8,0,0,0,0,.1,0l144.2,28c3.1.6,6.2-1.4,6.8-4.5.6-3.1-1.4-6.2-4.5-6.8,0,0,0,0-.1,0h0Z"/>
        <path id="Path_3133-1153" class="st2" d="M610.6,332.5l-120.8-23.5c-3.1-.6-5.2-3.6-4.6-6.8.6-3.1,3.6-5.2,6.8-4.6l120.8,23.5c3.1.6,5.2,3.6,4.6,6.8-.6,3.1-3.6,5.2-6.8,4.6h0Z"/>
        <path id="Path_3134-1154" class="st2" d="M630.3,356.1l-144.2-28c-3.1-.6-5.2-3.6-4.6-6.8.6-3.1,3.6-5.2,6.8-4.6l144.2,28c3.1.6,5.2,3.6,4.6,6.8-.6,3.1-3.6,5.2-6.8,4.6h0Z"/>
        <circle id="Ellipse_44-2" cx="472" cy="132.1" r="20.4"/>
        <path id="Path_395-2-1155" class="st0" d="M468.5,139.3c-.4,0-.9-.3-1.2-.7h0s-4-4.5-4-4.5c-.8-.9-.7-2.2.2-3,.9-.8,2.2-.7,3,.2l2.6,2.9,9-8c.9-.8,2.2-.7,3,.2,0,0,0,0,0,0h0c0,0,0,0,0,0,.8.9.7,2.2-.2,3l-10.6,9.4c-.5.4-1.2.6-1.8.5h0Z"/>
        <path id="Path_3135-1156" d="M477.4,221.9c-2.1,11-12.8,18.2-23.9,16.1h0c-.2,0-.3,0-.5-.1-11-2.4-17.9-13.3-15.5-24.3,2.4-11,13.3-17.9,24.3-15.5,10.8,2.4,17.7,12.9,15.6,23.8Z"/>
        <circle id="Ellipse_44-3" cx="438.7" cy="303.1" r="20.4"/>
        <path id="Path_3136-1157" class="st2" d="M739.6,120.6l-41.1-8c-6.2-1.2-10.3-7.3-9.1-13.5,0,0,0,0,0,0l5.9-30.3c0-.4.5-.6.8-.6s.3.1.4.2l43.7,51c.3.3.2.8,0,1-.2.1-.4.2-.6.2h0Z"/>
      </g>
    </g>
    <path id="Path_3140-1158" d="M496.1,424c-2.6,4.3-8.3,5.7-12.6,3l-106.9-65.2c-4.3-2.6-5.7-8.3-3-12.6,2.6-4.3,8.3-5.7,12.6-3h0l106.9,65.2c4.3,2.6,5.7,8.3,3,12.6h0Z"/>
    <path id="Path_3141-1159" class="st3" d="M389.2,358.8c-21.1,34.5-66.2,45.5-100.7,24.4-34.5-21.1-45.5-66.2-24.4-100.7,21.1-34.5,66.2-45.5,100.7-24.4,34.5,21.1,45.5,66.2,24.4,100.7,0,0,0,0,0,0ZM279.8,292c-15.8,25.9-7.6,59.7,18.3,75.5s59.7,7.6,75.5-18.3c15.8-25.9,7.6-59.7-18.3-75.5,0,0,0,0,0,0-25.9-15.8-59.7-7.6-75.5,18.3Z"/>
    <circle id="Ellipse_44-4" cx="325.9" cy="319.9" r="57"/>
  </g>
  <g>
    <path d="M648.1,413.7c-1.1-.7-2-1-3.7-1.5,0,0-.1,0-.2,0,.9-.3,1.7-.6,2.4-.9l.4-.2h0c.1,0,.2,0,.3-.1h0c0,0,.1,0,.2,0h0c0,0,0,0,.1,0,0,0,.2,0,.2,0,0,0,0,0,.1,0h0c0,0,.1-.1.2-.1,1.4-.8,4.8-2.5,6.8-6,.4-.7.7-1.3,1-2,0,1.2,0,2.9-.7,4.7-.4,1-.9,2-1.5,2.8,0,0,0,.1-.1.2,0,0,0,0,0,0,0,0,0,0,0,0,0,0,0,0,0,0h0c-.2.3-.5.5-.7.7h0c0,0,0,.1,0,.1-1,.8-2.4,1.5-4.5,2.5Z"/>
    <path d="M649.1,423.7c0-1,0-2.4-.7-3.8-1.1-2-2.9-2.6-5.7-3.6-1.4-.5-3.1-1.1-5.1-1.9-3.9-1.7-5.9-2.6-7.3-4.4-1.9-2.5-2.2-5.6-2.2-7.5.2.7.6,1.4,1,2,2,3.5,5.4,5.2,6.8,6,1.4.7,3,1.3,6.2,2.4.7.3,1.4.5,1.9.6,1.8.6,2.6.9,3.8,1.6.5.4,2,1.4,3,3.2,1.2,2.1,1.2,4.1,1.1,5.4h-2.8Z"/>
    <path d="M647.6,427.7c-10.3-.9-13.6-3.3-14.6-5.1-.5-1-.5-2.1,0-3.4v-.2c.1,0,.2-.2.2-.3h0c0-.1,0-.2.1-.3h0s0,0,0,0c0,0,.1-.2.2-.3,0,0,0,0,0,0,0,0,0-.1.1-.2,0,0,0,0,0-.1,0,0,0,0,0,0h0c.9-1.3,1.9-2,2.3-2.3.3.1.5.2.8.3,1,.4,1.9.8,3,1.2-.8.3-1.5.6-2.1.9,0,0-.1,0-.2,0h0s0,0-.1,0h0s0,0,0,0h0c-.7.5-1.3,1.1-1.7,1.9h0c-.3.6-.4,1.2-.1,1.7.5,1.2,2.3,2.8,12.2,6.1h-.2Z"/>
  </g>
</svg>